<?xml version="1.0" encoding="UTF-8" standalone="no"?>
<svg
   xmlns:dc="http://purl.org/dc/elements/1.1/"
   xmlns:cc="http://creativecommons.org/ns#"
   xmlns:rdf="http://www.w3.org/1999/02/22-rdf-syntax-ns#"
   xmlns:svg="http://www.w3.org/2000/svg"
   xmlns="http://www.w3.org/2000/svg"
   id="svg3917"
   version="1.1"
   viewBox="0 0 430 62.900631"
   height="62.900631mm"
   width="430mm">
  <defs
     id="defs3911">
    <clipPath
       id="clipPath20"
       clipPathUnits="userSpaceOnUse">
      <path
         id="path18"
         d="M 0,1547 H 2300 V 0 H 0 Z" />
    </clipPath>
  </defs>
  <metadata
     id="metadata3914">
    <rdf:RDF>
      <cc:Work
         rdf:about="">
        <dc:format>image/svg+xml</dc:format>
        <dc:type
           rdf:resource="http://purl.org/dc/dcmitype/StillImage" />
        <dc:title />
      </cc:Work>
    </rdf:RDF>
  </metadata>
  <g
     transform="translate(1.6766778,-87.463714)"
     id="layer1">
    <g
       id="g14"
       transform="matrix(0.35277777,0,0,-0.35277777,-457.11292,388.42775)">
      <g
         id="g4036">
        <g
           transform="translate(1548.5937,715.17612)"
           id="g52">
          <path
             id="path54"
             style="fill:#fafafa;fill-opacity:1;fill-rule:nonzero;stroke:none"
             d="m 0,0 h 41.38 c 3.4,0 6.672,0.304 9.816,0.916 3.144,0.61 6.24,1.589 9.287,2.939 3.049,1.349 5.485,3.34 7.313,5.974 1.828,2.634 2.744,5.749 2.744,9.348 0,4.626 -1.572,8.64 -4.715,12.046 -3.145,3.404 -6.849,5.83 -11.116,7.275 -4.267,1.446 -8.646,2.169 -13.137,2.169 L 0,40.667 Z m 0,60.422 h 41.569 c 8.146,0 14.322,1.517 18.525,4.552 4.201,3.036 6.303,7.33 6.303,12.885 0,5.294 -2.23,9.96 -6.689,13.995 -4.458,4.036 -10.569,6.055 -18.331,6.055 L 0,97.909 Z m -22.165,-80.948 v 138.19 h 63.409 c 6.682,0 12.817,-0.785 18.406,-2.356 5.591,-1.57 10.536,-3.911 14.842,-7.018 4.302,-3.108 7.661,-7.226 10.07,-12.353 2.409,-5.129 3.613,-11.026 3.613,-17.691 0,-6.059 -1.614,-11.522 -4.841,-16.389 -3.229,-4.867 -7.976,-8.59 -14.239,-11.168 5.224,-1.542 9.69,-4.225 13.401,-8.046 3.708,-3.823 6.337,-7.774 7.885,-11.854 1.548,-4.081 2.324,-8.015 2.324,-11.805 0,-5.846 -0.917,-11.067 -2.751,-15.659 -1.834,-4.595 -4.313,-8.369 -7.434,-11.323 -3.121,-2.956 -6.902,-5.382 -11.341,-7.276 -4.44,-1.896 -9.091,-3.245 -13.949,-4.047 -4.86,-0.804 -10.153,-1.205 -15.879,-1.205 z" />
        </g>
        <path
           id="path56"
           style="fill:#fafafa;fill-opacity:1;fill-rule:nonzero;stroke:none"
           d="m 1661.058,832.64742 h 20.333 v -137.997 h -20.333 z" />
        <g
           transform="translate(1720.0385,743.31522)"
           id="g58">
          <path
             id="path60"
             style="fill:#fafafa;fill-opacity:1;fill-rule:nonzero;stroke:none"
             d="m 0,0 c 0,-9.022 2.698,-16.563 8.094,-22.619 5.397,-6.057 12.625,-9.085 21.684,-9.085 9.121,0 16.396,3.028 21.826,9.085 5.429,6.056 8.144,13.597 8.144,22.619 0,8.827 -2.828,16.383 -8.481,22.666 -5.654,6.282 -12.817,9.425 -21.489,9.425 -8.997,0 -16.207,-3.11 -21.635,-9.328 C 2.713,16.544 0,8.956 0,0 m -20.333,0 c 0,14.491 4.64,26.547 13.925,36.165 9.283,9.618 21.344,14.428 36.186,14.428 9.727,0 18.447,-2.229 26.158,-6.686 C 63.649,39.451 69.601,33.392 73.793,25.729 77.984,18.066 80.081,9.49 80.081,0 c 0,-14.611 -4.624,-26.696 -13.873,-36.255 -9.248,-9.558 -21.392,-14.337 -36.43,-14.337 -14.97,0 -27.065,4.762 -36.283,14.289 -9.22,9.525 -13.828,21.627 -13.828,36.303" />
        </g>
        <g
           transform="translate(1811.9761,743.21902)"
           id="g62">
          <path
             id="path64"
             style="fill:#fafafa;fill-opacity:1;fill-rule:nonzero;stroke:none"
             d="m 0,0 c 0,8.159 1.332,15.515 3.999,22.068 2.666,6.553 6.345,11.916 11.035,16.093 4.689,4.176 10.117,7.372 16.285,9.589 6.167,2.216 12.817,3.325 19.948,3.325 13.62,0 25.344,-4.787 35.175,-14.359 L 73.431,23.032 c -6.039,5.845 -13.363,8.769 -21.971,8.769 -8.931,0 -16.351,-2.924 -22.261,-8.769 C 23.287,17.185 20.333,9.507 20.333,0 c 0,-9.894 2.954,-17.603 8.866,-23.128 5.91,-5.526 13.266,-8.288 22.068,-8.288 9.572,0 17.282,3.019 23.129,9.059 L 88.175,-35.945 C 77.832,-46.096 65.529,-51.171 51.267,-51.171 c -9.509,0 -18.085,1.896 -25.729,5.686 -7.646,3.79 -13.814,9.62 -18.504,17.49 C 2.344,-20.125 0,-10.793 0,0" />
        </g>
        <g
           transform="translate(1908.444,743.21902)"
           id="g66">
          <path
             id="path68"
             style="fill:#fafafa;fill-opacity:1;fill-rule:nonzero;stroke:none"
             d="m 0,0 c 0,8.159 1.332,15.515 3.999,22.068 2.666,6.553 6.345,11.916 11.035,16.093 4.689,4.176 10.117,7.372 16.285,9.589 6.167,2.216 12.817,3.325 19.948,3.325 13.62,0 25.344,-4.787 35.175,-14.359 L 73.431,23.032 c -6.039,5.845 -13.363,8.769 -21.972,8.769 -8.93,0 -16.35,-2.924 -22.26,-8.769 C 23.287,17.185 20.333,9.507 20.333,0 c 0,-9.894 2.954,-17.603 8.866,-23.128 5.91,-5.526 13.266,-8.288 22.068,-8.288 9.572,0 17.282,3.019 23.129,9.059 L 88.175,-35.945 C 77.832,-46.096 65.529,-51.171 51.267,-51.171 c -9.509,0 -18.085,1.896 -25.73,5.686 -7.645,3.79 -13.813,9.62 -18.503,17.49 C 2.344,-20.125 0,-10.793 0,0" />
        </g>
        <g
           transform="translate(2003.1495,709.58702)"
           id="g70">
          <path
             id="path72"
             style="fill:#fafafa;fill-opacity:1;fill-rule:nonzero;stroke:none"
             d="M 0,0 10.697,14.421 C 14.939,9.71 20.128,6.161 26.268,3.775 32.405,1.387 38.592,0.13 44.828,0 c 5.525,0 10.347,1.064 14.46,3.194 4.242,2.192 6.331,5.418 6.267,9.679 -0.064,4.064 -1.891,7.127 -5.481,9.193 -3.717,2.065 -9.358,3.42 -16.921,4.064 C 16.714,28.646 3.43,38.38 3.302,55.331 c 0,5.136 1.242,9.679 3.724,13.629 2.481,3.948 5.754,7.03 9.816,9.245 4.063,2.214 8.398,3.884 13.007,5.008 4.611,1.123 9.302,1.686 14.074,1.686 7.764,0 14.628,-0.985 20.596,-2.954 5.964,-1.97 11.579,-5.273 16.84,-9.911 L 69.893,58.648 c -3.656,3.355 -7.536,5.71 -11.641,7.065 -4.104,1.356 -8.752,2.033 -13.945,2.033 h -1.058 c -5.705,0 -10.351,-0.968 -13.941,-2.903 -3.717,-2.066 -5.609,-5.001 -5.672,-8.807 0.063,-3.873 1.923,-6.759 5.576,-8.663 3.652,-1.903 8.813,-3.178 15.481,-3.822 2.947,-0.26 5.592,-0.549 7.934,-0.871 2.343,-0.322 5.023,-0.821 8.039,-1.495 3.017,-0.676 5.647,-1.48 7.893,-2.413 2.248,-0.933 4.509,-2.171 6.789,-3.716 2.278,-1.545 4.156,-3.314 5.631,-5.307 1.476,-1.995 2.663,-4.424 3.563,-7.287 0.897,-2.864 1.347,-6.031 1.347,-9.505 -0.129,-9.2 -3.947,-16.648 -11.454,-22.341 -7.508,-5.693 -17.486,-8.54 -29.936,-8.54 -8.885,0 -17.03,1.309 -24.432,3.93 C 12.664,-11.374 5.975,-6.71 0,0" />
        </g>
        <g
           transform="translate(1357.7284,709.57142)"
           id="g74">
          <path
             id="path76"
             style="fill:#7c37ab;fill-opacity:1;fill-rule:nonzero;stroke:none"
             d="M 0,0 H -37.728 V 109 H 9.646 l 6.287,-6.608 21.073,20.912 L 16.488,143.555 10.201,137 H -66.728 V -28 h 66.179 l -14.234,13.726 z" />
        </g>
        <g
           transform="translate(1458,846.57142)"
           id="g78">
          <path
             id="path80"
             style="fill:#7c37ab;fill-opacity:1;fill-rule:nonzero;stroke:none"
             d="M 0,0 H -67.302 L -53.068,-13.725 -67.851,-28 H -28 v -109 h -49.497 l -6.287,6.353 -21.073,-21.04 20.518,-20.059 6.287,6.746 H 0 Z" />
        </g>
      </g>
    </g>
  </g>
  <text x="300" y="55.5" font-family="'Inter','Helvetica Neue',Arial,sans-serif" font-weight="900" font-size="60" letter-spacing="-2" fill="#fafafa">Web</text>
</svg>
